<svg width="800" height="800" viewBox="0 0 800 800" fill="none" xmlns="http://www.w3.org/2000/svg">
<g clip-path="url(#clip0_110_27)">
<path d="M794.356 588.44C787.867 583.15 778.285 584.133 772.958 590.583C770.725 593.255 717.183 655.272 594.072 586.884C450.485 507.092 353.697 569.584 349.649 572.286C342.669 576.936 340.794 586.334 345.408 593.336C350.052 600.345 359.486 602.28 366.496 597.681C369.963 595.426 452.656 543.18 579.281 613.522C627.735 640.442 667.572 649.55 699.328 649.55C763.719 649.55 794.791 612.08 796.681 609.72C801.902 603.195 800.846 593.723 794.356 588.44Z" fill="#3700B3"/>
<path d="M794.356 679.87C787.867 674.588 778.285 675.563 772.958 682.013C770.725 684.684 717.183 746.702 594.072 678.314C450.485 598.536 353.697 661.014 349.649 663.716C342.669 668.366 340.794 677.764 345.408 684.766C350.052 691.783 359.486 693.694 366.496 689.111C369.963 686.848 452.656 634.616 579.281 704.952C627.735 731.872 667.572 740.98 699.328 740.98C763.719 740.98 794.791 703.509 796.681 701.15C801.902 694.625 800.846 685.153 794.356 679.87Z" fill="#3700B3"/>
<path d="M388.576 180.927C245.733 180.927 129.525 297.133 129.525 439.978C129.525 537.413 183.366 625.688 270.033 670.369C272.266 671.522 274.647 672.066 276.997 672.066C282.517 672.066 287.845 669.06 290.553 663.806C294.408 656.328 291.476 647.139 283.991 643.285C207.517 603.85 160 525.955 160 439.978C160 313.942 262.531 211.403 388.575 211.403C514.619 211.403 617.15 313.942 617.15 439.978C617.15 457.538 615.156 474.986 611.242 491.847C609.322 500.039 614.426 508.231 622.626 510.144C630.781 512.011 639.011 506.952 640.916 498.752C645.366 479.63 647.626 459.86 647.626 439.978C647.628 297.135 531.42 180.927 388.576 180.927Z" fill="#3700B3"/>
<path d="M761.916 432.159H700.963C692.539 432.159 685.724 438.983 685.724 447.398C685.724 455.814 692.539 462.637 700.963 462.637H761.916C770.339 462.637 777.155 455.814 777.155 447.398C777.155 438.983 770.338 432.159 761.916 432.159Z" fill="#3700B3"/>
<path d="M663.342 172.831C657.389 166.878 647.747 166.878 641.794 172.831L598.698 215.934C592.745 221.887 592.745 231.537 598.698 237.483C601.675 240.459 605.573 241.947 609.472 241.947C613.37 241.947 617.27 240.459 620.245 237.483L663.34 194.379C669.295 188.426 669.295 178.776 663.342 172.831Z" fill="#3700B3"/>
<path d="M390.344 59.0205C381.922 59.0205 375.104 65.8439 375.104 74.2596V135.213C375.104 143.628 381.92 150.452 390.344 150.452C398.767 150.452 405.583 143.628 405.583 135.213V74.2596C405.583 65.8439 398.767 59.0205 390.344 59.0205Z" fill="#3700B3"/>
<path d="M178.455 215.934L135.359 172.831C129.406 166.878 119.764 166.878 113.811 172.831C107.858 178.776 107.858 188.426 113.811 194.379L156.906 237.483C159.883 240.459 163.781 241.947 167.681 241.947C171.58 241.947 175.478 240.459 178.455 237.483C184.408 231.537 184.408 221.887 178.455 215.934Z" fill="#3700B3"/>
<path d="M178.455 657.711C172.502 651.758 162.859 651.758 156.906 657.711L113.811 700.814C107.858 706.767 107.858 716.417 113.811 722.363C116.788 725.339 120.686 726.827 124.586 726.827C128.484 726.827 132.383 725.339 135.359 722.363L178.455 679.259C184.408 673.308 184.408 663.656 178.455 657.711Z" fill="#3700B3"/>
<path d="M76.1922 432.159H15.2391C6.81719 432.159 0 438.983 0 447.398C0 455.814 6.81563 462.637 15.2391 462.637H76.1922C84.6156 462.637 91.4313 455.814 91.4313 447.398C91.4313 438.983 84.6141 432.159 76.1922 432.159Z" fill="#3700B3"/>
</g>
<defs>
<clipPath id="clip0_110_27">
<rect width="800" height="800" fill="white"/>
</clipPath>
</defs>
</svg>
